<svg xmlns="http://www.w3.org/2000/svg" fill="none" viewBox="0 0 24 24" id="Send-Email--Streamline-Core" height="24" width="24">
  <desc>
    Send Email Streamline Icon: https://streamlinehq.com
  </desc>
  <g id="send-email--mail-send-email-paper-airplane">
    <path id="Subtract" fill="#ffffff" fill-rule="evenodd" d="M20.26525714285714 0.16754245714285715c0.4942285714285714 -0.18043011428571426 1.0294285714285714 -0.21676542857142855 1.5437142857142856 -0.10459868571428571 0.5192571428571429 0.11328994285714285 0.9951428571428571 0.3733093714285714 1.3709142857142855 0.7491459428571428 0.37577142857142853 0.3758365714285714 0.6358285714285714 0.8516879999999999 0.7491428571428571 1.3709845714285713 0.11211428571428571 0.5141485714285714 0.07577142857142857 1.0494857142857141 -0.10457142857142857 1.5435942857142855l-6.126857142857142 18.363445714285714 -0.00034285714285714285 0.0012c-0.1493142857142857 0.45154285714285713 -0.4121142857142857 0.8573142857142857 -0.7633714285714285 1.1782285714285714 -0.35022857142857144 0.3200571428571429 -0.7765885714285714 0.5448000000000001 -1.2383657142857143 0.6531428571428571 -0.46186285714285713 0.11262857142857141 -0.945102857142857 0.10302857142857143 -1.4022514285714285 -0.0276 -0.45673714285714284 -0.13045714285714285 -0.87168 -0.37731428571428566 -1.2042 -0.7163999999999999l-3.2868685714285713 -3.2718857142857143 -3.452674285714286 1.7854285714285716c-0.26922857142857143 0.1392 -0.5919771428571429 0.12582857142857143 -0.8488285714285714 -0.03514285714285714 -0.25683428571428574 -0.16079999999999997 -0.4095942857142857 -0.44554285714285713 -0.40172571428571424 -0.7484571428571428l0.14154857142857144 -5.4578742857142855 12.077022857142856 -8.772702857142855c0.47879999999999995 -0.34776 0.5850857142857142 -1.0177885714285713 0.23725714285714283 -1.4965371428571428 -0.34782857142857143 -0.47876571428571424 -1.0177885714285713 -0.5849485714285715 -1.4965542857142857 -0.23718857142857144L3.77628 13.86582857142857 0.8110714285714286 10.900611428571429l-0.00009942857142857142 -0.00008571428571428571 -0.000216 -0.00022285714285714283c-0.32112514285714283 -0.3208971428571428 -0.5575285714285714 -0.7165199999999999 -0.6879800571428571 -1.151365714285714 -0.1295236457142857 -0.43174285714285715 -0.1505670857142857 -0.8887028571428571 -0.061339542857142854 -1.3304399999999998 0.08934274285714285 -0.48258857142857137 0.3050710285714286 -0.9329314285714285 0.6252670285714285 -1.3050514285714285 0.3223885714285714 -0.3746742857142857 0.7389822857142856 -0.6564514285714286 1.2067251428571428 -0.8162057142857142l0.005777142857142857 -0.0019714285714285715 0 0.00001714285714285714L20.26525714285714 0.16754245714285715Z" clip-rule="evenodd" stroke-width="1.7143"></path>
  </g>
</svg>